<svg xmlns="http://www.w3.org/2000/svg" version="1.1" xmlns:xlink="http://www.w3.org/1999/xlink" xmlns:svgjs="http://svgjs.com/svgjs" width="512" height="512" x="0" y="0" viewBox="0 0 512 512" style="enable-background:new 0 0 512 512" xml:space="preserve" class=""><g>
<g>
	<g>
		<path d="M511.873,208.556l-10.779-60.025c-0.034-0.194-0.081-0.384-0.129-0.573c-0.026-0.099-0.053-0.197-0.082-0.296
			c-0.077-0.259-0.166-0.51-0.267-0.757c-0.039-0.095-0.077-0.189-0.12-0.282c-0.128-0.283-0.271-0.559-0.429-0.823
			c-0.043-0.071-0.091-0.14-0.136-0.21c-0.157-0.244-0.326-0.479-0.507-0.704c-0.028-0.034-0.049-0.073-0.078-0.108l-60.344-72.276
			V8.084c0-4.466-3.618-8.084-8.084-8.084H81.08c-4.466,0-8.084,3.619-8.084,8.084v64.424l-60.293,72.218
			c-0.005,0.006-0.01,0.012-0.015,0.018l-0.029,0.036c-0.01,0.012-0.016,0.025-0.026,0.036c-0.218,0.263-0.415,0.542-0.599,0.832
			c-0.026,0.041-0.054,0.08-0.079,0.122c-0.175,0.287-0.329,0.586-0.468,0.897c-0.027,0.06-0.052,0.122-0.078,0.182
			c-0.128,0.308-0.245,0.623-0.335,0.951c-0.001,0.005-0.004,0.011-0.005,0.017c-0.065,0.235-0.119,0.473-0.163,0.717L0.127,208.558
			C0.042,209.028,0,209.505,0,209.985c0,24.556,16.161,45.403,38.404,52.477v241.454c0,4.466,3.619,8.084,8.084,8.084h48.387
			c4.466,0,8.084-3.618,8.084-8.084c0-4.466-3.618-8.084-8.084-8.084H54.573V265.03c0.162,0.001,0.322,0.012,0.484,0.012h5.219
			c19.855,0,37.288-10.567,46.975-26.371c9.687,15.803,27.117,26.371,46.972,26.371h5.219c19.855,0,37.289-10.566,46.976-26.369
			c9.687,15.802,27.117,26.369,46.971,26.369h5.219c19.855,0,37.285-10.567,46.974-26.369c9.687,15.803,27.119,26.369,46.972,26.369
			h5.221c19.856,0,37.287-10.567,46.975-26.371c9.687,15.804,27.119,26.371,46.974,26.371h5.219c0.163,0,0.322-0.011,0.484-0.012
			v230.802h-29.023V353.625v-43.116c0-4.466-3.618-8.084-8.084-8.084H305.583c-4.466,0-8.084,3.618-8.084,8.084v43.116v142.207
			H120.737c-4.466,0-8.084,3.619-8.084,8.084c0,4.466,3.618,8.084,8.084,8.084h184.846h114.734h45.192
			c4.466,0,8.084-3.618,8.084-8.084V262.462C495.838,255.387,512,234.54,512,209.985C512,209.506,511.958,209.028,511.873,208.556z
			 M412.233,495.832h-98.566V361.709h98.566V495.832z M412.233,345.541h-98.566v-26.947h98.566V345.541z M89.165,16.168h333.67
			v49.607H89.165V16.168z M292.945,141.876h-73.89l9.101-59.932h55.688L292.945,141.876z M99.231,208.977
			c-0.043,0.334-0.065,0.67-0.065,1.008c0,21.444-17.447,38.889-38.89,38.889h-5.219c-21.214,0-38.515-17.074-38.882-38.203
			l9.451-52.626h80.007L99.231,208.977z M36.144,141.876L86.18,81.944h53.056l-29.474,59.932H36.144z M198.344,209.549
			c-0.008,0.144-0.012,0.29-0.012,0.434c0,21.445-17.447,38.89-38.89,38.89h-5.219c-21.282,0-38.626-17.184-38.885-38.406
			l3.106-24.715l3.483-27.708h79.192L198.344,209.549z M202.701,141.876h-74.92l29.474-59.932h54.547L202.701,141.876z
			 M258.609,248.874h-5.219c-21.374,0-38.776-17.334-38.887-38.682l0.666-12.37l2.143-39.778h77.378l2.371,44.023l0.438,8.124
			C297.387,231.54,279.983,248.874,258.609,248.874z M300.198,81.944h54.547l29.474,59.932h-74.92L300.198,81.944z M357.775,248.874
			h-5.221c-21.443,0-38.886-17.446-38.886-38.889c0-0.146-0.004-0.291-0.012-0.434l-2.775-51.505h79.192l6.589,52.423
			C396.402,231.69,379.058,248.874,357.775,248.874z M402.238,141.876l-29.474-59.932h53.058l50.038,59.932H402.238z
			 M456.941,248.874h-5.219c-21.444,0-38.888-17.446-38.888-38.889c0-0.337-0.022-0.674-0.064-1.009l-6.402-50.932h80.007
			l9.451,52.626C495.458,231.8,478.157,248.874,456.941,248.874z" fill="#949494" data-original="#000000"></path>
	</g>
</g>
<g>
	<g>
		<path d="M262.167,302.425H94.793c-4.466,0-8.084,3.618-8.084,8.084v102.093c0,4.466,3.618,8.084,8.084,8.084h167.372
			c4.466,0,8.085-3.618,8.085-8.084V310.509C270.251,306.043,266.632,302.425,262.167,302.425z M102.877,404.518v-85.924h151.204
			v85.924H102.877z" fill="#949494" data-original="#000000"></path>
	</g>
</g>
<g>
	<g>
		<path d="M398.282,32.888H115.874c-4.466,0-8.084,3.619-8.084,8.084s3.618,8.084,8.084,8.084h282.408
			c4.466,0,8.084-3.619,8.084-8.084S402.748,32.888,398.282,32.888z" fill="#949494" data-original="#000000"></path>
	</g>
</g>
<g>
</g>
<g>
</g>
<g>
</g>
<g>
</g>
<g>
</g>
<g>
</g>
<g>
</g>
<g>
</g>
<g>
</g>
<g>
</g>
<g>
</g>
<g>
</g>
<g>
</g>
<g>
</g>
<g>
</g>
</g></svg>